<svg width="164" height="20" viewBox="0 0 164 20" xmlns="http://www.w3.org/2000/svg" xmlns:xlink="http://www.w3.org/1999/xlink"><title>Artboard 5</title><defs><path id="a" d="M0 .193h163.679V20H0V.192z"/><path id="c" d="M0 .193h163.679V20H0"/><path id="e" d="M0 .193h163.679V20H0V.192z"/></defs><g fill="none" fill-rule="evenodd"><path d="M5 1v12.285h9.654v.477H5V20h15V7.099h-7.5V6.65H20V1H5z" fill="#41A9E1"/><path d="M12 1H0v19h12l-3.454-9.5L12 1z" fill="#F5F5F5"/><path d="M0 1v19h12l-3.917-9.5L12 1H0z"/><path d="M37.058 1l-7.935 8.309h-1.919V1H25v19h2.204v-8.79h1.92L38.016 20H41l-9.958-9.804L39.937 1h-2.879zM42 1v19h13v-1.9H44.292v-6.967h10.249V9.36H44.292V2.9H55V1H42zM57 1v19h13v-1.9H59.293v-6.967H69.54V9.36H59.293V2.9H70V1H57zM73.273 2.9v7.802h5.882c3.021 0 4.572.026 4.572-3.673 0-3.648-.695-4.129-3.503-4.129h-6.951zM71 1h10.214C85.09 1 86 3.483 86 6.75c0 1.698-.027 5.853-4.893 5.853h-7.834V20H71V1z" fill="#F5F5F5"/><mask id="b" fill="#fff"><use xlink:href="#a"/></mask><path d="M91.749 13.631v.91c0 2.235.961 2.392 4.418 2.392 3.406 0 3.874-.624 3.874-2.886 0-2.781-1.482-2.417-4.393-2.573-4.211-.26-7.538-.104-7.538-5.77 0-5.356 3.378-5.512 8.057-5.512 3.978 0 7.227.13 7.227 5.251v.624H99.65v-.624c0-2.105-.858-2.183-3.484-2.183-3.717 0-4.315.364-4.315 2.443 0 2.392.494 2.47 4.29 2.704 6.004.364 7.642.675 7.642 5.64 0 5.485-2.6 5.953-7.617 5.953-4.315 0-8.161.13-8.161-5.459v-.91h3.743z" fill="#41A9E1" mask="url(#b)"/><mask id="d" fill="#fff"><use xlink:href="#c"/></mask><path d="M109.4 7.315v5.25c0 3.874.753 4.238 4.497 4.238 3.405 0 4.575-.468 4.575-4.237V7.315c.078-3.665-1.248-3.925-4.575-3.925-4.029 0-4.419.832-4.497 3.925m12.815 0v5.25c0 6.24-2.418 7.435-8.318 7.435-6.03 0-8.24-1.04-8.24-7.434V7.315c0-6.057 2.053-7.123 8.24-7.123 5.614 0 8.318.858 8.318 7.123" fill="#41A9E1" mask="url(#d)"/><path d="M128.69 16.646h9.097v3.198h-12.84V.349h3.742v16.297z" fill="#41A9E1"/><mask id="f" fill="#fff"><use xlink:href="#e"/></mask><path d="M143.377 19.844h-3.743V.349h3.743v19.495zM156.634 16.646c2.522 0 3.302-2.261 3.302-4.445v-4.6c0-3.25-1.066-4.056-3.926-4.056h-5.562v13.101h6.186zM146.704.35h9.306c5.381 0 7.669 1.949 7.669 7.252v4.6c0 4.055-1.144 7.643-7.045 7.643h-9.93V.349z" fill="#41A9E1" mask="url(#f)"/></g></svg>